# xmcd
#
# Track frame offsets:
#	150
#	22114
#	36778
#	54465
#	67733
#	83789
#	100000
#	115782
#	134311
#	158792
#
# Disc length: 2375 seconds
# Revision: 0
# Processed by: cddbd v1.5.2PL0 Copyright (c) Steve Scherf et al.
# Submitted via: dBpowerAMP V12.0
#
DISCID=7609450a
DTITLE=Crary, Evans and Barnick - Prime Time
DYEAR=2020
DGENRE=Bluegrass
TTITLE0=20/20 Vision/Clinch Mountain Backstep
TTITLE1=All Just To Get To You
TTITLE2=I'll Remember You Love In My Prayers
TTITLE3=Crazy Creek
TTITLE4=Sonny's Dream
TTITLE5=Rattlin' Roarin' Willie/Winston's Jig Medley
TTITLE6=Seven Bridges Road
TTITLE7=Memphis In The Meantime
TTITLE8=Road To Ruidoso
TTITLE9=I'm On My Journey Home and Ecstasy/Heaven's Light Is Shining/We Shall Rise
EXTD=
EXTT0=
EXTT1=
EXTT2=
EXTT3=
EXTT4=
EXTT5=
EXTT6=
EXTT7=
EXTT8=
EXTT9=
PLAYORDER=
